<svg xmlns="http://www.w3.org/2000/svg" xmlns:xlink="http://www.w3.org/1999/xlink" aria-hidden="true" role="img" class="iconify iconify--logos" width="256" height="256" preserveAspectRatio="xMidYMid meet" viewBox="0 0 256 256"><defs><linearGradient id="IconifyId1813088fe1fbc01fb466" x1="-.828%" x2="57.636%" y1="7.652%" y2="78.411%"><stop offset="0%" stop-color="#41D1FF"/><stop offset="100%" stop-color="#BD34FE"/></linearGradient><linearGradient id="IconifyId1813088fe1fbc01fb467" x1="43.376%" x2="50.316%" y1="2.242%" y2="89.03%"><stop offset="0%" stop-color="#FFEA83"/><stop offset="8.333%" stop-color="#FFDD35"/><stop offset="100%" stop-color="#FFA800"/></linearGradient></defs><path fill="url(#IconifyId1813088fe1fbc01fb466)" d="M255.153 37.342L134.89 252.971a12.598 12.598 0 0 1-23.434-6.742l-32.54-133.464l-68.935 68.935a12.598 12.598 0 0 1-21.083-15.5l129.72-214.32a12.598 12.598 0 0 1 22.012 4.462z"/><path fill="url(#IconifyId1813088fe1fbc01fb467)" d="M183.415 0L.85 148.73a12.598 12.598 0 0 0 10.052 21.823l104.63-15.571l32.54 133.464a12.598 12.598 0 0 0 23.434-6.742L254.3 13.22A12.598 12.598 0 0 0 183.415 0z"/></svg>